<mxfile host="Electron" agent="Mozilla/5.0 (Windows NT 10.0; Win64; x64) AppleWebKit/537.36 (KHTML, like Gecko) draw.io/28.0.6 Chrome/138.0.7204.100 Electron/37.2.3 Safari/537.36" version="28.0.6">
  <diagram id="6K2L0thh9Qf6AcWFtn7J" name="Overview">
    <mxGraphModel dx="72" dy="-410" grid="1" gridSize="10" guides="1" tooltips="1" connect="1" arrows="1" fold="1" page="1" pageScale="1" pageWidth="850" pageHeight="1100" math="0" shadow="0">
      <root>
        <mxCell id="0" />
        <mxCell id="1" parent="0" />
        <mxCell id="yG2wOSbRxI6GufdI99vh-3" value="" style="aspect=fixed;html=1;points=[];align=center;image;fontSize=12;image=img/lib/azure2/databases/Azure_Cosmos_DB.svg;" parent="1" vertex="1">
          <mxGeometry x="1580" y="1385.74" width="64" height="64" as="geometry" />
        </mxCell>
        <mxCell id="yG2wOSbRxI6GufdI99vh-27" value="" style="aspect=fixed;html=1;points=[];align=center;image;fontSize=12;image=img/lib/azure2/integration/API_Management_Services.svg;" parent="1" vertex="1">
          <mxGeometry x="1219.5" y="1387.74" width="65" height="60" as="geometry" />
        </mxCell>
        <mxCell id="yG2wOSbRxI6GufdI99vh-30" value="" style="endArrow=classic;html=1;rounded=0;startArrow=classic;exitX=0.964;exitY=0.785;exitDx=0;exitDy=0;exitPerimeter=0;startFill=1;" parent="1" source="yG2wOSbRxI6GufdI99vh-27" edge="1">
          <mxGeometry width="50" height="50" relative="1" as="geometry">
            <mxPoint x="1380.5" y="1292.24" as="sourcePoint" />
            <mxPoint x="1420" y="1630" as="targetPoint" />
          </mxGeometry>
        </mxCell>
        <mxCell id="yG2wOSbRxI6GufdI99vh-45" value="" style="aspect=fixed;html=1;points=[];align=center;image;fontSize=12;image=img/lib/azure2/compute/Function_Apps.svg;" parent="1" vertex="1">
          <mxGeometry x="1215" y="1540" width="68" height="60" as="geometry" />
        </mxCell>
        <mxCell id="ZJQy_w_e6BmF9ysCzNVd-2" value="" style="image;aspect=fixed;html=1;points=[];align=center;fontSize=12;image=img/lib/azure2/app_services/App_Services.svg;" parent="1" vertex="1">
          <mxGeometry x="1404" y="1391.74" width="54" height="54" as="geometry" />
        </mxCell>
        <mxCell id="ZJQy_w_e6BmF9ysCzNVd-3" value="" style="endArrow=classic;html=1;rounded=0;startArrow=none;entryX=0.035;entryY=0.443;entryDx=0;entryDy=0;entryPerimeter=0;exitX=1.078;exitY=0.465;exitDx=0;exitDy=0;exitPerimeter=0;" parent="1" source="yG2wOSbRxI6GufdI99vh-27" target="ZJQy_w_e6BmF9ysCzNVd-2" edge="1">
          <mxGeometry width="50" height="50" relative="1" as="geometry">
            <mxPoint x="1290" y="1419.24" as="sourcePoint" />
            <mxPoint x="1339" y="1542.24" as="targetPoint" />
          </mxGeometry>
        </mxCell>
        <mxCell id="ZJQy_w_e6BmF9ysCzNVd-4" value="" style="endArrow=classic;html=1;rounded=0;startArrow=none;" parent="1" edge="1">
          <mxGeometry width="50" height="50" relative="1" as="geometry">
            <mxPoint x="1460" y="1418" as="sourcePoint" />
            <mxPoint x="1574" y="1418.34" as="targetPoint" />
          </mxGeometry>
        </mxCell>
        <mxCell id="ZJQy_w_e6BmF9ysCzNVd-5" value="" style="endArrow=classic;html=1;rounded=0;startArrow=classic;exitX=0.5;exitY=1;exitDx=0;exitDy=0;startFill=1;" parent="1" source="ZJQy_w_e6BmF9ysCzNVd-17" edge="1">
          <mxGeometry width="50" height="50" relative="1" as="geometry">
            <mxPoint x="1404.004" y="1445.7440000000001" as="sourcePoint" />
            <mxPoint x="1440" y="1630" as="targetPoint" />
          </mxGeometry>
        </mxCell>
        <mxCell id="ZJQy_w_e6BmF9ysCzNVd-6" value="" style="endArrow=classic;html=1;rounded=0;startArrow=none;entryX=-0.029;entryY=0.511;entryDx=0;entryDy=0;entryPerimeter=0;" parent="1" target="yG2wOSbRxI6GufdI99vh-27" edge="1">
          <mxGeometry width="50" height="50" relative="1" as="geometry">
            <mxPoint x="1010" y="1492.24" as="sourcePoint" />
            <mxPoint x="1432" y="1425.24" as="targetPoint" />
          </mxGeometry>
        </mxCell>
        <mxCell id="ZJQy_w_e6BmF9ysCzNVd-7" value="" style="curved=1;endArrow=classic;html=1;rounded=0;entryX=0.5;entryY=1;entryDx=0;entryDy=0;exitX=0.547;exitY=-0.05;exitDx=0;exitDy=0;exitPerimeter=0;" parent="1" source="yG2wOSbRxI6GufdI99vh-45" target="ZJQy_w_e6BmF9ysCzNVd-16" edge="1">
          <mxGeometry width="50" height="50" relative="1" as="geometry">
            <mxPoint x="1320" y="1592.24" as="sourcePoint" />
            <mxPoint x="1384" y="1552.24" as="targetPoint" />
          </mxGeometry>
        </mxCell>
        <mxCell id="ZJQy_w_e6BmF9ysCzNVd-15" value="Azure Load Testing" style="text;html=1;strokeColor=none;fillColor=none;align=center;verticalAlign=middle;whiteSpace=wrap;rounded=0;" parent="1" vertex="1">
          <mxGeometry x="930" y="1528.61" width="70" height="30" as="geometry" />
        </mxCell>
        <mxCell id="ZJQy_w_e6BmF9ysCzNVd-16" value="Azure API Management" style="text;html=1;strokeColor=none;fillColor=none;align=center;verticalAlign=middle;whiteSpace=wrap;rounded=0;" parent="1" vertex="1">
          <mxGeometry x="1220" y="1447.74" width="60" height="30" as="geometry" />
        </mxCell>
        <mxCell id="ZJQy_w_e6BmF9ysCzNVd-17" value="Azure App Service" style="text;html=1;strokeColor=none;fillColor=none;align=center;verticalAlign=middle;whiteSpace=wrap;rounded=0;" parent="1" vertex="1">
          <mxGeometry x="1401" y="1451.74" width="60" height="30" as="geometry" />
        </mxCell>
        <mxCell id="ZJQy_w_e6BmF9ysCzNVd-18" value="Azure Cosmos Db" style="text;html=1;strokeColor=none;fillColor=none;align=center;verticalAlign=middle;whiteSpace=wrap;rounded=0;" parent="1" vertex="1">
          <mxGeometry x="1564" y="1452.24" width="96" height="30" as="geometry" />
        </mxCell>
        <mxCell id="ZJQy_w_e6BmF9ysCzNVd-19" value="Cache Refresh Azure Function" style="text;html=1;strokeColor=none;fillColor=none;align=center;verticalAlign=middle;whiteSpace=wrap;rounded=0;" parent="1" vertex="1">
          <mxGeometry x="1208.5" y="1604" width="86" height="30" as="geometry" />
        </mxCell>
        <mxCell id="ZJQy_w_e6BmF9ysCzNVd-22" value="Azure Log Analytics Workspace" style="text;html=1;strokeColor=none;fillColor=none;align=center;verticalAlign=middle;whiteSpace=wrap;rounded=0;" parent="1" vertex="1">
          <mxGeometry x="1565" y="1820" width="120" height="30" as="geometry" />
        </mxCell>
        <mxCell id="A5cpedAC0TNpdhpzlkUz-3" value="" style="endArrow=none;html=1;rounded=0;exitX=-0.037;exitY=0.385;exitDx=0;exitDy=0;exitPerimeter=0;endFill=0;startArrow=classic;startFill=1;" parent="1" edge="1">
          <mxGeometry relative="1" as="geometry">
            <mxPoint x="1392.6319999999998" y="1654.02" as="sourcePoint" />
            <mxPoint x="1285" y="1580" as="targetPoint" />
          </mxGeometry>
        </mxCell>
        <mxCell id="A5cpedAC0TNpdhpzlkUz-4" value="" style="shape=message;html=1;outlineConnect=0;" parent="A5cpedAC0TNpdhpzlkUz-3" vertex="1">
          <mxGeometry width="20" height="14" relative="1" as="geometry">
            <mxPoint x="-10" y="-7" as="offset" />
          </mxGeometry>
        </mxCell>
        <mxCell id="A5cpedAC0TNpdhpzlkUz-5" value="Event" style="text;strokeColor=none;align=center;fillColor=none;html=1;verticalAlign=middle;whiteSpace=wrap;rounded=0;" parent="1" vertex="1">
          <mxGeometry x="1314.25" y="1580" width="35.5" height="19" as="geometry" />
        </mxCell>
        <mxCell id="vSjTRbr6mJTGYNNCUK1v-1" value="" style="aspect=fixed;html=1;points=[];align=center;image;fontSize=12;image=img/lib/azure2/compute/Function_Apps.svg;" parent="1" vertex="1">
          <mxGeometry x="1091.5" y="1637.5" width="68" height="60" as="geometry" />
        </mxCell>
        <mxCell id="vSjTRbr6mJTGYNNCUK1v-2" value="History&lt;div&gt;Azure Function&lt;/div&gt;" style="text;html=1;strokeColor=none;fillColor=none;align=center;verticalAlign=middle;whiteSpace=wrap;rounded=0;" parent="1" vertex="1">
          <mxGeometry x="1085" y="1701.5" width="90" height="30" as="geometry" />
        </mxCell>
        <mxCell id="vSjTRbr6mJTGYNNCUK1v-3" value="" style="endArrow=classic;html=1;rounded=0;startArrow=none;exitX=0.059;exitY=1.186;exitDx=0;exitDy=0;exitPerimeter=0;" parent="1" edge="1" source="ZJQy_w_e6BmF9ysCzNVd-16">
          <mxGeometry width="50" height="50" relative="1" as="geometry">
            <mxPoint x="1220" y="1459.5" as="sourcePoint" />
            <mxPoint x="1130" y="1630" as="targetPoint" />
          </mxGeometry>
        </mxCell>
        <mxCell id="vSjTRbr6mJTGYNNCUK1v-4" value="" style="endArrow=classic;html=1;rounded=0;startArrow=classic;entryX=0.085;entryY=0.756;entryDx=0;entryDy=0;entryPerimeter=0;startFill=1;" parent="1" edge="1">
          <mxGeometry width="50" height="50" relative="1" as="geometry">
            <mxPoint x="1175" y="1673" as="sourcePoint" />
            <mxPoint x="1400.4399999999998" y="1673.312" as="targetPoint" />
          </mxGeometry>
        </mxCell>
        <mxCell id="7anAuGGuqcb3E-BDwONa-1" value="" style="image;aspect=fixed;html=1;points=[];align=center;fontSize=12;image=img/lib/azure2/other/Azure_Load_Testing.svg;" vertex="1" parent="1">
          <mxGeometry x="930" y="1457.4099999999999" width="68" height="65.2" as="geometry" />
        </mxCell>
        <mxCell id="7anAuGGuqcb3E-BDwONa-2" value="Azure Managed Redis" style="shape=image;verticalLabelPosition=bottom;labelBackgroundColor=default;verticalAlign=top;aspect=fixed;imageAspect=0;editableCssRules=.*;image=data:image/svg+xml,PHN2ZyB4bWxucz0iaHR0cDovL3d3dy53My5vcmcvMjAwMC9zdmciIGZpbGw9Im5vbmUiIHZpZXdCb3g9IjAuNSAwLjUwMDI0Mzk2MTgxMTA2NTcgMTYuOTk5NTAwMjc0NjU4MjAzIDE2Ljk5OTU1NTU4Nzc2ODU1NSIgaGVpZ2h0PSIxNi45OTk1NTU1ODc3Njg1NTUiIHdpZHRoPSIxNi45OTk1MDAyNzQ2NTgyMDMiPjxwYXRoIGZpbGw9InVybCgjcGFpbnQwX2xpbmVhcl85OTc4XzIyODApIiBkPSJNOC45OTk3NiAwLjUwMDI0NEM5LjI3NTkgMC41MDAyNDQgOS40OTk3NiAwLjcyNDEwMiA5LjQ5OTc2IDEuMDAwMjRWMkgxMS40OTk4VjEuMDAwMjRDMTEuNDk5OCAwLjcyNDEwMiAxMS43MjM2IDAuNTAwMjQ0IDExLjk5OTggMC41MDAyNDRDMTIuMjc1OSAwLjUwMDI0NCAxMi40OTk4IDAuNzI0MTAyIDEyLjQ5OTggMS4wMDAyNFYySDE0QzE1LjEwNDYgMiAxNiAyLjg5NTQzIDE2IDRWNS41SDE2Ljk5OTVDMTcuMjc1NyA1LjUgMTcuNDk5NSA1LjcyMzg2IDE3LjQ5OTUgNkMxNy40OTk1IDYuMjc2MTQgMTcuMjc1NyA2LjUgMTYuOTk5NSA2LjVIMTZWOC41SDE2Ljk5OTVDMTcuMjc1NyA4LjUgMTcuNDk5NSA4LjcyMzg2IDE3LjQ5OTUgOUMxNy40OTk1IDkuMjc2MTQgMTcuMjc1NyA5LjUgMTYuOTk5NSA5LjVIMTZWMTEuNUgxNi45OTk1QzE3LjI3NTcgMTEuNSAxNy40OTk1IDExLjcyMzkgMTcuNDk5NSAxMkMxNy40OTk1IDEyLjI3NjEgMTcuMjc1NyAxMi41IDE2Ljk5OTUgMTIuNUgxNlYxNEMxNiAxNS4xMDQ2IDE1LjEwNDYgMTYgMTQgMTZIMTIuNDk5OFYxNi45OTk4QzEyLjQ5OTggMTcuMjc1OSAxMi4yNzU5IDE3LjQ5OTggMTEuOTk5OCAxNy40OTk4QzExLjcyMzYgMTcuNDk5OCAxMS40OTk4IDE3LjI3NTkgMTEuNDk5OCAxNi45OTk4VjE2SDkuNDk5NzZWMTYuOTk5OEM5LjQ5OTc2IDE3LjI3NTkgOS4yNzU5IDE3LjQ5OTggOC45OTk3NiAxNy40OTk4QzguNzIzNjEgMTcuNDk5OCA4LjQ5OTc2IDE3LjI3NTkgOC40OTk3NiAxNi45OTk4VjE2SDYuNDk5NzZWMTYuOTk5OEM2LjQ5OTc2IDE3LjI3NTkgNi4yNzU5IDE3LjQ5OTggNS45OTk3NiAxNy40OTk4QzUuNzIzNjEgMTcuNDk5OCA1LjQ5OTc2IDE3LjI3NTkgNS40OTk3NiAxNi45OTk4VjE2SDRDMi44OTU0MyAxNiAyIDE1LjEwNDYgMiAxNFYxMi41SDFDMC43MjM4NTggMTIuNSAwLjUgMTIuMjc2MSAwLjUgMTJDMC41IDExLjcyMzkgMC43MjM4NTggMTEuNSAxIDExLjVIMlY5LjVIMUMwLjcyMzg1OCA5LjUgMC41IDkuMjc2MTQgMC41IDlDMC41IDguNzIzODYgMC43MjM4NTggOC41IDEgOC41SDJWNi41SDFDMC43MjM4NTggNi41IDAuNSA2LjI3NjE0IDAuNSA2QzAuNSA1LjcyMzg2IDAuNzIzODU4IDUuNSAxIDUuNUgyVjRDMiAyLjg5NTQzIDIuODk1NDMgMiA0IDJINS40OTk3NlYxLjAwMDI0QzUuNDk5NzYgMC43MjQxMDIgNS43MjM2MSAwLjUwMDI0NCA1Ljk5OTc2IDAuNTAwMjQ0QzYuMjc1OSAwLjUwMDI0NCA2LjQ5OTc2IDAuNzI0MTAyIDYuNDk5NzYgMS4wMDAyNFYySDguNDk5NzZWMS4wMDAyNEM4LjQ5OTc2IDAuNzI0MTAyIDguNzIzNjEgMC41MDAyNDQgOC45OTk3NiAwLjUwMDI0NFpNOC45ODM5OCAzSDYuMDE1NTNDNi4wMTAyOSAzLjAwMDE2IDYuMDA1MDMgMy4wMDAyNCA1Ljk5OTc2IDMuMDAwMjRDNS45OTQ0OCAzLjAwMDI0IDUuOTg5MjIgMy4wMDAxNiA1Ljk4Mzk4IDNINEMzLjQ0NzcyIDMgMyAzLjQ0NzcyIDMgNFYxNEMzIDE0LjU1MjMgMy40NDc3MiAxNSA0IDE1SDUuOTgzOThDNS45ODkyMiAxNC45OTk4IDUuOTk0NDggMTQuOTk5OCA1Ljk5OTc2IDE0Ljk5OThDNi4wMDUwMyAxNC45OTk4IDYuMDEwMjkgMTQuOTk5OCA2LjAxNTUzIDE1SDguOTgzOThDOC45ODkyMiAxNC45OTk4IDguOTk0NDggMTQuOTk5OCA4Ljk5OTc2IDE0Ljk5OThDOS4wMDUwMyAxNC45OTk4IDkuMDEwMjkgMTQuOTk5OCA5LjAxNTUzIDE1SDExLjk4NEMxMS45ODkyIDE0Ljk5OTggMTEuOTk0NSAxNC45OTk4IDExLjk5OTggMTQuOTk5OEMxMi4wMDUgMTQuOTk5OCAxMi4wMTAzIDE0Ljk5OTggMTIuMDE1NSAxNUgxNEMxNC41NTIzIDE1IDE1IDE0LjU1MjMgMTUgMTRWMTIuMDIyM0MxNC45OTk3IDEyLjAxNDkgMTQuOTk5NSAxMi4wMDc1IDE0Ljk5OTUgMTJDMTQuOTk5NSAxMS45OTI1IDE0Ljk5OTcgMTEuOTg1MSAxNSAxMS45Nzc3VjkuMDIyM0MxNC45OTk3IDkuMDE0OSAxNC45OTk1IDkuMDA3NDcgMTQuOTk5NSA5QzE0Ljk5OTUgOC45OTI1MyAxNC45OTk3IDguOTg1MSAxNSA4Ljk3NzdWNi4wMjIzQzE0Ljk5OTcgNi4wMTQ5MSAxNC45OTk1IDYuMDA3NDcgMTQuOTk5NSA2QzE0Ljk5OTUgNS45OTI1MyAxNC45OTk3IDUuOTg1MDkgMTUgNS45Nzc3VjRDMTUgMy40NDc3MiAxNC41NTIzIDMgMTQgM0gxMi4wMTU1QzEyLjAxMDMgMy4wMDAxNiAxMi4wMDUgMy4wMDAyNCAxMS45OTk4IDMuMDAwMjRDMTEuOTk0NSAzLjAwMDI0IDExLjk4OTIgMy4wMDAxNiAxMS45ODQgM0g5LjAxNTUzQzkuMDEwMjkgMy4wMDAxNiA5LjAwNTAzIDMuMDAwMjQgOC45OTk3NiAzLjAwMDI0QzguOTk0NDggMy4wMDAyNCA4Ljk4OTIyIDMuMDAwMTYgOC45ODM5OCAzWiIgY2xpcC1ydWxlPSJldmVub2RkIiBmaWxsLXJ1bGU9ImV2ZW5vZGQiLz48cmVjdCBmaWxsPSJ1cmwoI3BhaW50MV9saW5lYXJfOTk3OF8yMjgwKSIgcng9IjAuNSIgaGVpZ2h0PSIxMCIgd2lkdGg9IjEwIiB5PSI0IiB4PSI0Ii8+PHBhdGggZmlsbD0id2hpdGUiIGQ9Ik0xMi4xMjQgOS4zMTAzNUMxMS42Mzk4IDkuODc3MDYgMTEuMTE2OCAxMC41MjQ4IDEwLjA3MSAxMC41MjQ4QzkuMTM2NzEgMTAuNTI0OCA4Ljc4ODY3IDkuNzU5MzIgOC43NjQyIDkuMTM3NTJDOC45Njg4OCA5LjUzOTU2IDkuMzY5MDcgOS44NjUxNCA5Ljk5MzQ1IDkuODUwMDdDMTEuMTk0MyA5LjgxNDA5IDEyLjAxNzQgOC44MDY2IDEyLjAxNzQgNy44ODkwNkMxMi4wMTc0IDYuNzkxNiAxMS4xMzYyIDYgOS42MDYwOSA2QzguNTExNzggNiA3LjE1NiA2LjM4NjggNi4yNjUwNSA2Ljk5ODVDNi4yNTUzNyA3LjYyODE5IDYuNjMzMDUgOC40NDY3OCA2Ljc2ODYzIDguMzU2ODJDNy41NDEwMiA3Ljg0MDk3IDguMTUzNDkgNy41MDg5IDguNzQ3NTUgNy4zNDI0QzcuODY4MTggOC4yNTMyOCA1Ljc1ODMzIDEwLjM2ODMgNS41IDEwLjc0MDdDNS41MjkwNSAxMS4wODI1IDUuOTg0MjEgMTIgNi4yMDY5NCAxMkM2LjI3NDczIDEyIDYuMzMyODQgMTEuOTY0IDYuNDAwNjMgMTEuOTAxMUM3LjAzNjcgMTEuMjM3MiA3LjU1NTIyIDEwLjY0MiA4LjAxNjQzIDEwLjA2ODNDOC4wODExOSAxMC45MDkxIDguNTI2MyAxMS45MzcgOS43NzA3MiAxMS45MzdDMTAuODg0NCAxMS45MzcgMTEuOTg4NCAxMS4xOTA0IDEyLjQ5MiA5LjUwODI0QzEyLjU1MDEgOS4zMDEzNSAxMi4yNzg5IDkuMTM5NDMgMTIuMTI0IDkuMzEwMzVaTTEwLjg1NTQgNy45NTIwMkMxMC44NTU0IDguNDgyNzYgMTAuMjkzNyA4Ljc0MzYzIDkuNzgwNDEgOC43NDM2M0M5LjUwNjA1IDguNzQzNjMgOS4yOTUzIDguNjc2NzEgOS4xMjg2MiA4LjU4OTc2QzkuNDM1MyA4LjE1ODQgOS43Mzg4NyA3LjcxNjA4IDEwLjA2NTEgNy4yNDI1OEMxMC42NDAyIDcuMzMzIDEwLjg1NTQgNy42Mjk5NCAxMC44NTU0IDcuOTUyMDJaIi8+PGRlZnM+PGxpbmVhckdyYWRpZW50IGdyYWRpZW50VW5pdHM9InVzZXJTcGFjZU9uVXNlIiB5Mj0iMC41MDAyNDQiIHgyPSIxNy40OTk1IiB5MT0iMTcuMjUzMSIgeDE9IjAuNTAwMDAxIiBpZD0icGFpbnQwX2xpbmVhcl85OTc4XzIyODAiPjxzdG9wIHN0b3AtY29sb3I9IiM3NTc1NzUiLz48c3RvcCBzdG9wLWNvbG9yPSIjQjBCMEIwIiBvZmZzZXQ9IjAuOTE1MTYiLz48L2xpbmVhckdyYWRpZW50PjxsaW5lYXJHcmFkaWVudCBncmFkaWVudFVuaXRzPSJ1c2VyU3BhY2VPblVzZSIgeTI9IjEzLjM5MjYiIHgyPSI0LjUzNTY4IiB5MT0iNC42MTYyNyIgeDE9IjEzLjI3NjUiIGlkPSJwYWludDFfbGluZWFyXzk5NzhfMjI4MCI+PHN0b3Agc3RvcC1jb2xvcj0iIzAwNzhENCIvPjxzdG9wIHN0b3AtY29sb3I9IiMwMDVCQTEiIG9mZnNldD0iMSIvPjwvbGluZWFyR3JhZGllbnQ+PHJlY3QgZmlsbD0id2hpdGUiIGhlaWdodD0iMTgiIHdpZHRoPSIxOCIvPjwvZGVmcz48L3N2Zz4=;" vertex="1" parent="1">
          <mxGeometry x="1415" y="1640" width="50" height="50" as="geometry" />
        </mxCell>
        <mxCell id="7anAuGGuqcb3E-BDwONa-3" value="" style="image;aspect=fixed;html=1;points=[];align=center;fontSize=12;image=img/lib/azure2/management_governance/Log_Analytics_Workspaces.svg;" vertex="1" parent="1">
          <mxGeometry x="1601.5" y="1760" width="47" height="47" as="geometry" />
        </mxCell>
        <mxCell id="7anAuGGuqcb3E-BDwONa-4" value="" style="image;aspect=fixed;html=1;points=[];align=center;fontSize=12;image=img/lib/azure2/devops/Application_Insights.svg;" vertex="1" parent="1">
          <mxGeometry x="1490" y="1760" width="34" height="48.68" as="geometry" />
        </mxCell>
        <mxCell id="7anAuGGuqcb3E-BDwONa-5" value="Azure Application Insights" style="text;html=1;strokeColor=none;fillColor=none;align=center;verticalAlign=middle;whiteSpace=wrap;rounded=0;" vertex="1" parent="1">
          <mxGeometry x="1447" y="1820" width="120" height="30" as="geometry" />
        </mxCell>
        <mxCell id="7anAuGGuqcb3E-BDwONa-6" value="" style="shape=image;verticalLabelPosition=bottom;labelBackgroundColor=default;verticalAlign=top;aspect=fixed;imageAspect=0;editableCssRules=.*;image=data:image/svg+xml,PHN2ZyB4bWxucz0iaHR0cDovL3d3dy53My5vcmcvMjAwMC9zdmciIHZpZXdCb3g9IjAuNjQzODUxMzk5NDIxNjkxOSAtOS41MzY3NDMxNjQwNjI1ZS03IDE2LjcxMjE1MDU3MzczMDQ3IDE4IiBoZWlnaHQ9IjE4IiB3aWR0aD0iMTYuNzEyMTUwNTczNzMwNDciIGlkPSJ1dWlkLTZiODM4MGMzLTBlZTUtNGM0NC05MmEyLWYxODVjODJkYjZiYSI+PGRlZnM+PGxpbmVhckdyYWRpZW50IGdyYWRpZW50VW5pdHM9InVzZXJTcGFjZU9uVXNlIiBncmFkaWVudFRyYW5zZm9ybT0idHJhbnNsYXRlKDYxNy4xMjYgLTIwNS43NTgpIHNjYWxlKDEgLTEpIiB5Mj0iLTIwNi4yMiIgeDI9Ii02MDYuNiIgeTE9Ii0yMTguMzc4IiB4MT0iLTYwMy41NjMiIGlkPSJ1dWlkLTA1ODc2YzcyLThmMjYtNDBkYS05OTZlLWE0ODgxNzJlYzA3MiI+PHN0b3Agc3RvcC1jb2xvcj0iIzcxMjU3NSIgb2Zmc2V0PSIwIi8+PHN0b3Agc3RvcC1jb2xvcj0iIzlhMjg4NCIgb2Zmc2V0PSIuMDkiLz48c3RvcCBzdG9wLWNvbG9yPSIjYmYyYzkyIiBvZmZzZXQ9Ii4xOCIvPjxzdG9wIHN0b3AtY29sb3I9IiNkYTJlOWMiIG9mZnNldD0iLjI3Ii8+PHN0b3Agc3RvcC1jb2xvcj0iI2ViMzBhMiIgb2Zmc2V0PSIuMzQiLz48c3RvcCBzdG9wLWNvbG9yPSIjZjEzMWE1IiBvZmZzZXQ9Ii40Ii8+PHN0b3Agc3RvcC1jb2xvcj0iI2VjMzBhMyIgb2Zmc2V0PSIuNSIvPjxzdG9wIHN0b3AtY29sb3I9IiNkZjJmOWUiIG9mZnNldD0iLjYxIi8+PHN0b3Agc3RvcC1jb2xvcj0iI2M5MmQ5NiIgb2Zmc2V0PSIuNzIiLz48c3RvcCBzdG9wLWNvbG9yPSIjYWEyYThhIiBvZmZzZXQ9Ii44MyIvPjxzdG9wIHN0b3AtY29sb3I9IiM4MzI2N2MiIG9mZnNldD0iLjk1Ii8+PHN0b3Agc3RvcC1jb2xvcj0iIzcxMjU3NSIgb2Zmc2V0PSIxIi8+PC9saW5lYXJHcmFkaWVudD48bGluZWFyR3JhZGllbnQgZ3JhZGllbnRVbml0cz0idXNlclNwYWNlT25Vc2UiIGdyYWRpZW50VHJhbnNmb3JtPSJ0cmFuc2xhdGUoNjE3LjEyNiAtMjA1Ljc1OCkgc2NhbGUoMSAtMSkiIHkyPSItMjIzLjE3NSIgeDI9Ii02MDIuNDEyIiB5MT0iLTIwNi4wMjUiIHgxPSItNjAyLjQxMiIgaWQ9InV1aWQtYzRhMmY2MjctZDczMC00NDdlLTkxNTItNjIwMDljNjRjMzYxIj48c3RvcCBzdG9wLWNvbG9yPSIjZGE3ZWQwIiBvZmZzZXQ9IjAiLz48c3RvcCBzdG9wLWNvbG9yPSIjYjE3YmQ1IiBvZmZzZXQ9Ii4wOCIvPjxzdG9wIHN0b3AtY29sb3I9IiM4Nzc4ZGIiIG9mZnNldD0iLjE5Ii8+PHN0b3Agc3RvcC1jb2xvcj0iIzYyNzZlMSIgb2Zmc2V0PSIuMyIvPjxzdG9wIHN0b3AtY29sb3I9IiM0NTc0ZTUiIG9mZnNldD0iLjQxIi8+PHN0b3Agc3RvcC1jb2xvcj0iIzJlNzJlOCIgb2Zmc2V0PSIuNTQiLz48c3RvcCBzdG9wLWNvbG9yPSIjMWQ3MWViIiBvZmZzZXQ9Ii42NyIvPjxzdG9wIHN0b3AtY29sb3I9IiMxNDcxZWMiIG9mZnNldD0iLjgxIi8+PHN0b3Agc3RvcC1jb2xvcj0iIzExNzFlZCIgb2Zmc2V0PSIxIi8+PC9saW5lYXJHcmFkaWVudD48bGluZWFyR3JhZGllbnQgZ3JhZGllbnRVbml0cz0idXNlclNwYWNlT25Vc2UiIGdyYWRpZW50VHJhbnNmb3JtPSJ0cmFuc2xhdGUoNjE3LjEyNiAtMjA1Ljc1OCkgc2NhbGUoMSAtMSkiIHkyPSItMjI0LjY0NCIgeDI9Ii02MTQuODA3IiB5MT0iLTIwNi40MTQiIHgxPSItNjAzLjQzOCIgaWQ9InV1aWQtNWE0Y2YyMTUtNDkzMi00ZjEyLThhZjEtMWI2ODMzZGYyNTljIj48c3RvcCBzdG9wLWNvbG9yPSIjZGE3ZWQwIiBvZmZzZXQ9IjAiLz48c3RvcCBzdG9wLWNvbG9yPSIjYjc3YmQ0IiBvZmZzZXQ9Ii4wNSIvPjxzdG9wIHN0b3AtY29sb3I9IiM5MDc5ZGEiIG9mZnNldD0iLjExIi8+PHN0b3Agc3RvcC1jb2xvcj0iIzZlNzdkZiIgb2Zmc2V0PSIuMTgiLz48c3RvcCBzdG9wLWNvbG9yPSIjNTE3NWUzIiBvZmZzZXQ9Ii4yNSIvPjxzdG9wIHN0b3AtY29sb3I9IiMzOTczZTciIG9mZnNldD0iLjMzIi8+PHN0b3Agc3RvcC1jb2xvcj0iIzI3NzJlOSIgb2Zmc2V0PSIuNDIiLz48c3RvcCBzdG9wLWNvbG9yPSIjMWE3MWViIiBvZmZzZXQ9Ii41NCIvPjxzdG9wIHN0b3AtY29sb3I9IiMxMzcxZWMiIG9mZnNldD0iLjY4Ii8+PHN0b3Agc3RvcC1jb2xvcj0iIzExNzFlZCIgb2Zmc2V0PSIxIi8+PC9saW5lYXJHcmFkaWVudD48L2RlZnM+PHBhdGggc3Ryb2tlLXdpZHRoPSIwIiBmaWxsLXJ1bGU9ImV2ZW5vZGQiIGZpbGw9InVybCgjdXVpZC0wNTg3NmM3Mi04ZjI2LTQwZGEtOTk2ZS1hNDg4MTcyZWMwNzIpIiBkPSJtMTIuMDYxLjAxMmMuNTM0LDAsMS4wMDguNDAxLDEuMTc4Ljk4NHMxLjE2Niw0LjE5LDEuMTY2LDQuMTl2Ny4xNjZoLTMuNjA3bC4wNzMtMTIuMzUyaDEuMTl2LjAxMloiLz48cGF0aCBzdHJva2Utd2lkdGg9IjAiIGZpbGw9InVybCgjdXVpZC1jNGEyZjYyNy1kNzMwLTQ0N2UtOTE1Mi02MjAwOWM2NGMzNjEpIiBkPSJtMTcuMzU2LDUuNjExYzAtLjI1NS0uMjA2LS40NDktLjQ0OS0uNDQ5aC0yLjEyNmMtMS40OTQsMC0yLjcwOSwxLjIxNS0yLjcwOSwyLjcwOXY0LjQ5NGgyLjU3NWMxLjQ5NCwwLDIuNzA5LTEuMjE1LDIuNzA5LTIuNzA5di00LjA0NVoiLz48cGF0aCBzdHJva2Utd2lkdGg9IjAiIGZpbGwtcnVsZT0iZXZlbm9kZCIgZmlsbD0idXJsKCN1dWlkLTVhNGNmMjE1LTQ5MzItNGYxMi04YWYxLTFiNjgzM2RmMjU5YykiIGQ9Im0xMi4wNjEuMDEyYy0uNDEzLDAtLjc0MS4zMjgtLjc0MS43NDFsLS4wNzMsMTMuNjRjMCwxLjk5Mi0xLjYxNSwzLjYwNy0zLjYwNywzLjYwN0gxLjA5M2MtLjMxNiwwLS41MjItLjMwNC0uNDI1LS41OTVMNS45MTUsMi40MjlDNi40MjUuOTg0LDcuNzg1LjAxMiw5LjMxNi4wMTJoMi43NTctLjAxMloiLz48L3N2Zz4=;" vertex="1" parent="1">
          <mxGeometry x="1582" y="1260" width="48" height="50.82" as="geometry" />
        </mxCell>
        <mxCell id="7anAuGGuqcb3E-BDwONa-8" value="" style="endArrow=classic;html=1;rounded=0;startArrow=classic;startFill=1;" edge="1" parent="1">
          <mxGeometry width="50" height="50" relative="1" as="geometry">
            <mxPoint x="1570" y="1300" as="sourcePoint" />
            <mxPoint x="1460" y="1400" as="targetPoint" />
          </mxGeometry>
        </mxCell>
        <mxCell id="7anAuGGuqcb3E-BDwONa-11" value="Azure AI Foundry" style="text;html=1;strokeColor=none;fillColor=none;align=center;verticalAlign=middle;whiteSpace=wrap;rounded=0;" vertex="1" parent="1">
          <mxGeometry x="1570" y="1322.24" width="60" height="30" as="geometry" />
        </mxCell>
        <mxCell id="7anAuGGuqcb3E-BDwONa-14" value="" style="verticalLabelPosition=bottom;html=1;verticalAlign=top;align=center;strokeColor=none;fillColor=#00BEF2;shape=mxgraph.azure.computer;pointerEvents=1;" vertex="1" parent="1">
          <mxGeometry x="940" y="1366.86" width="50" height="45" as="geometry" />
        </mxCell>
        <mxCell id="7anAuGGuqcb3E-BDwONa-15" value="" style="endArrow=classic;html=1;rounded=0;startArrow=none;" edge="1" parent="1">
          <mxGeometry width="50" height="50" relative="1" as="geometry">
            <mxPoint x="1010" y="1402.24" as="sourcePoint" />
            <mxPoint x="1220" y="1402.24" as="targetPoint" />
          </mxGeometry>
        </mxCell>
        <mxCell id="7anAuGGuqcb3E-BDwONa-16" value="Your computer" style="text;html=1;strokeColor=none;fillColor=none;align=center;verticalAlign=middle;whiteSpace=wrap;rounded=0;" vertex="1" parent="1">
          <mxGeometry x="930" y="1416.86" width="70" height="30" as="geometry" />
        </mxCell>
        <mxCell id="7anAuGGuqcb3E-BDwONa-17" value="" style="image;aspect=fixed;html=1;points=[];align=center;fontSize=12;image=img/lib/azure2/identity/Entra_Managed_Identities.svg;" vertex="1" parent="1">
          <mxGeometry x="1343.18" y="1761.02" width="53.63" height="47.66" as="geometry" />
        </mxCell>
        <mxCell id="7anAuGGuqcb3E-BDwONa-18" value="Microsoft&amp;nbsp;&lt;div&gt;Entra Id&lt;/div&gt;" style="text;html=1;strokeColor=none;fillColor=none;align=center;verticalAlign=middle;whiteSpace=wrap;rounded=0;" vertex="1" parent="1">
          <mxGeometry x="1310" y="1820" width="120" height="30" as="geometry" />
        </mxCell>
      </root>
    </mxGraphModel>
  </diagram>
</mxfile>
